#!OML:ASF H:\ManfredObstacles\Project 1\Capture day 2\Session 1\male.ASF
:FULLY-SPECIFIED
:DEGREES
644
root 1.50926 15.9549 1.49658 -170.78 -9.03762 178.217
lowerback -5.22266 -4.2147 -7.09546
upperback 1.25144 -5.22906 1.91806
thorax 5.06437 -2.83551 5.45237
lowerneck -34.7761 -1.55461 0.938818
upperneck 39.4243 -1.83954 1.68362
head 22.1921 0.420019 0.496099
rclavicle -5.57591e-014 3.97569e-015
rhumerus -47.1389 -30.8457 -60.49
rradius 21.2839
rwrist 44.2839
rhand -0.508198 -5.84652
rfingers 7.12502
rthumb 25.1035 -34.2163
lclavicle -5.57591e-014 3.97569e-015
lhumerus -24.8614 7.21527 89.7613
lradius 24.8106
lwrist -44.088
lhand 5.65709 5.19908
lfingers 7.12502
lthumb 30.9965 32.6012
rfemur -29.8187 -0.796581 22.8328
rtibia 27.8223
rfoot -3.18919 -16.8979
rtoes -13.4632
lfemur 7.23072 -7.58835 -21.238
ltibia 29.7582
lfoot 12.5459 -2.22184
ltoes -15.557
645
root 1.53056 15.9633 1.36322 -170.924 -9.11894 178.339
lowerback -5.19309 -4.17415 -6.96899
upperback 1.25588 -5.18634 1.93159
thorax 5.03484 -2.81016 5.40293
lowerneck -34.724 -1.59869 0.903088
upperneck 39.4987 -1.86555 1.69455
head 22.2324 0.415882 0.505754
rclavicle -5.7896e-014 1.76918e-014
rhumerus -46.7017 -30.3722 -61.1453
rradius 21.6432
rwrist 43.6163
rhand -0.559207 -5.85789
rfingers 7.12502
rthumb 25.0546 -34.2345
lclavicle -5.7896e-014 1.76918e-014
lhumerus -24.8612 6.53272 89.871
lradius 25.0819
lwrist -43.7109
lhand 5.84652 5.09092
lfingers 7.12502
lthumb 31.1771 32.4585
rfemur -29.0611 -1.13674 23.227
rtibia 27.6644
rfoot -3.48308 -16.6512
rtoes -12.8574
lfemur 5.75692 -7.18371 -20.861
ltibia 32.955
lfoot 13.5886 -2.87362
ltoes -13.55
646
root 1.55109 15.9717 1.23219 -171.098 -9.17942 178.493
lowerback -5.12386 -4.11133 -6.79566
upperback 1.26983 -5.11984 1.94865
thorax 4.98534 -2.77155 5.33609
lowerneck -34.6792 -1.63306 0.890187
upperneck 39.5513 -1.87965 1.67021
head 22.2574 0.411949 0.494478
rclavicle -5.27276e-014 1.39149e-015
rhumerus -46.2357 -29.8143 -61.8778
rradius 22.0444
rwrist 42.8265
rhand -0.645219 -5.89995
rfingers 7.12502
rthumb 24.9722 -34.288
lclavicle -5.27276e-014 1.39149e-015
lhumerus -24.8243 5.8839 89.9693
lradius 25.357
lwrist -43.463
lhand 5.99699 4.93286
lfingers 7.12502
lthumb 31.3205 32.2728
rfemur -28.2449 -1.44106 23.6304
rtibia 27.4337
rfoot -3.75374 -16.4076
rtoes -12.3575
lfemur 4.29651 -6.77981 -20.4783
ltibia 36.1094
lfoot 14.7067 -3.47555
ltoes -11.2576
647
root 1.57025 15.9798 1.10345 -171.302 -9.20844 178.689
lowerback -5.02651 -4.0232 -6.56572
upperback 1.29349 -5.02538 1.97353
thorax 4.92186 -2.71763 5.25034
lowerneck -34.6205 -1.68465 0.852741
upperneck 39.6168 -1.90293 1.65181
head 22.2885 0.403273 0.488913
rclavicle 6.45305e-014 9.93923e-016
rhumerus -45.7506 -29.1963 -62.6512
rradius 22.471
rwrist 41.9415
rhand -0.763877 -5.96327
rfingers 7.12502
rthumb 24.8585 -34.3671
lclavicle 6.45305e-014 9.93923e-016
lhumerus -24.7608 5.29338 90.0588
lradius 25.6361
lwrist -43.2953
lhand 6.09756 4.77553
lfingers 7.12502
lthumb 31.4163 32.0968
rfemur -27.3727 -1.72766 24.0571
rtibia 27.1314
rfoot -4.02217 -16.1436
rtoes -11.921
lfemur 2.84872 -6.37545 -20.0852
ltibia 39.2146
lfoot 15.8399 -3.97615
ltoes -8.81917
648
root 1.58801 15.9872 0.977751 -171.523 -9.20708 178.942
lowerback -4.91423 -3.90791 -6.26558
upperback 1.32519 -4.90048 2.00988
thorax 4.84937 -2.64702 5.14101
lowerneck -34.5583 -1.73188 0.827704
upperneck 39.6665 -1.91796 1.60855
head 22.3061 0.39437 0.469249
rclavicle 1.38652e-014 -2.22639e-014
rhumerus -45.247 -28.5631 -63.4291
rradius 22.8879
rwrist 41.0554
rhand -0.919644 -6.04004
rfingers 7.12502
rthumb 24.7092 -34.4644
lclavicle 1.38652e-014 -2.22639e-014
lhumerus -24.664 4.8019 90.1214
lradius 25.9005
lwrist -43.235
lhand 6.12999 4.60026
lfingers 7.12502
lthumb 31.4472 31.9155
rfemur -26.4631 -1.99992 24.5274
rtibia 26.7572
rfoot -4.28448 -15.8511
rtoes -11.5376
lfemur 1.40107 -5.96744 -19.6613
ltibia 42.2623
lfoot 16.903 -4.32005
ltoes -6.42262
649
root 1.60417 15.9935 0.855016 -171.75 -9.16631 179.253
lowerback -4.80266 -3.77045 -5.89798
upperback 1.36236 -4.75075 2.06172
thorax 4.7762 -2.56289 5.01193
lowerneck -34.4536 -1.78014 0.792838
upperneck 39.7153 -1.92175 1.56482
head 22.311 0.388897 0.454583
rclavicle 6.56238e-014 -1.68967e-014
rhumerus -44.7045 -27.8969 -64.2203
rradius 23.2837
rwrist 40.1578
rhand -1.10607 -6.14567
rfingers 7.12502
rthumb 24.5305 -34.5944
lclavicle 6.56238e-014 -1.68967e-014
lhumerus -24.5437 4.4567 90.1501
lradius 26.1606
lwrist -43.2762
lhand 6.10813 4.4312
lfingers 7.12502
lthumb 31.4263 31.7505
rfemur -25.5353 -2.2702 25.0449
rtibia 26.3178
rfoot -4.53819 -15.5083
rtoes -11.193
lfemur -0.0508837 -5.54862 -19.2054
ltibia 45.2371
lfoot 17.7978 -4.39775
ltoes -4.34931
650
root 1.61857 15.9986 0.734979 -171.974 -9.07499 179.613
lowerback -4.70264 -3.61157 -5.47986
upperback 1.40135 -4.57563 2.13109
thorax 4.70701 -2.4656 4.87392
lowerneck -34.3308 -1.82794 0.741236
upperneck 39.7601 -1.91014 1.51718
head 22.3078 0.385582 0.444979
rclavicle 3.88624e-014 1.07344e-014
rhumerus -44.1307 -27.2212 -64.9849
rradius 23.6452
rwrist 39.3143
rhand -1.29574 -6.25722
rfingers 7.12502
rthumb 24.3487 -34.7305
lclavicle 3.88624e-014 1.07344e-014
lhumerus -24.4304 4.24879 90.1506
lradius 26.4289
lwrist -43.3488
lhand 5.99991 4.28534
lfingers 7.12502
lthumb 31.3232 31.6247
rfemur -24.5999 -2.53633 25.6011
rtibia 25.8211
rfoot -4.77548 -15.1063
rtoes -10.8628
lfemur -1.50173 -5.10713 -18.7286
ltibia 48.1197
lfoot 18.4369 -4.15344
ltoes -2.72146
651
root 1.63161 16.0027 0.617266 -172.188 -8.94078 180
lowerback -4.61223 -3.43692 -5.03045
upperback 1.44466 -4.38131 2.20944
thorax 4.64571 -2.35874 4.72799
lowerneck -34.2332 -1.85795 0.701732
upperneck 39.7975 -1.8729 1.45019
head 22.3055 0.388888 0.429324
rclavicle -9.69075e-015 -5.1684e-015
rhumerus -43.515 -26.5331 -65.7404
rradius 23.9741
rwrist 38.4987
rhand -1.49631 -6.38236
rfingers 7.12502
rthumb 24.1564 -34.8813
lclavicle -9.69075e-015 -5.1684e-015
lhumerus -24.3152 4.18051 90.1159
lradius 26.7009
lwrist -43.4253
lhand 5.80958 4.17015
lfingers 7.12502
lthumb 31.1419 31.5445
rfemur -23.6692 -2.79051 26.1748
rtibia 25.2852
rfoot -4.99101 -14.6663
rtoes -10.5565
lfemur -2.94963 -4.64642 -18.2475
ltibia 50.8869
lfoot 18.7649 -3.56235
ltoes -1.61548
652
root 1.64358 16.0061 0.501236 -172.384 -8.76991 180.391
lowerback -4.53865 -3.2531 -4.5761
upperback 1.47958 -4.17389 2.28521
thorax 4.58552 -2.24522 4.57608
lowerneck -34.1237 -1.87113 0.688371
upperneck 39.8207 -1.81749 1.36347
head 22.2882 0.399004 0.402968
rclavicle -2.00276e-014 2.5842e-015
rhumerus -42.8947 -25.8517 -66.4651
rradius 24.2773
rwrist 37.7711
rhand -1.67706 -6.50641
rfingers 7.12502
rthumb 23.9831 -35.0283
lclavicle -2.00276e-014 2.5842e-015
lhumerus -24.2358 4.2367 90.0345
lradius 26.9775
lwrist -43.4767
lhand 5.53038 4.09
lfingers 7.12502
lthumb 30.8757 31.5151
rfemur -22.7544 -3.0143 26.7392
rtibia 24.7308
rfoot -5.18895 -14.221
rtoes -10.2764
lfemur -4.39402 -4.17942 -17.7852
ltibia 53.5123
lfoot 18.7875 -2.62709
ltoes -1.06855
653
root 1.65479 16.0091 0.386536 -172.554 -8.55707 180.746
lowerback -4.48747 -3.06647 -4.16679
upperback 1.51063 -3.95861 2.35755
thorax 4.53891 -2.12935 4.44461
lowerneck -34.0293 -1.87894 0.661641
upperneck 39.8653 -1.74319 1.28143
head 22.2912 0.415862 0.387672
rclavicle 4.86774e-014 -1.70955e-014
rhumerus -42.2525 -25.191 -67.1433
rradius 24.5485
rwrist 37.1592
rhand -1.83948 -6.61368
rfingers 7.12502
rthumb 23.8273 -35.156
lclavicle 4.86774e-014 -1.70955e-014
lhumerus -24.1876 4.40566 89.9242
lradius 27.2536
lwrist -43.4213
lhand 5.12232 4.06197
lfingers 7.12502
lthumb 30.4866 31.56
rfemur -21.8713 -3.20035 27.2556
rtibia 24.1843
rfoot -5.37686 -13.7888
rtoes -10.0258
lfemur -5.83274 -3.70721 -17.3836
ltibia 55.9709
lfoot 18.5266 -1.43872
ltoes -1.03115
654
root 1.666 16.0123 0.27277 -172.698 -8.31177 181.034
lowerback -4.45763 -2.88523 -3.83628
upperback 1.54496 -3.74371 2.41394
thorax 4.51473 -2.01599 4.33883
lowerneck -33.9764 -1.84673 0.695224
upperneck 39.9001 -1.62617 1.14849
head 22.2967 0.447615 0.34523
rclavicle -1.12562e-014 1.37161e-014
rhumerus -41.5782 -24.5842 -67.7763
rradius 24.7802
rwrist 36.7066
rhand -1.97603 -6.68517
rfingers 7.12502
rthumb 23.6964 -35.2445
lclavicle -1.12562e-014 1.37161e-014
lhumerus -24.1604 4.65633 89.7807
lradius 27.5299
lwrist -43.2361
lhand 4.61675 4.09358
lfingers 7.12502
lthumb 30.0044 31.6801
rfemur -21.0243 -3.31369 27.6869
rtibia 23.6712
rfoot -5.55527 -13.4267
rtoes -9.80704
lfemur -7.26409 -3.24654 -17.075
ltibia 58.2419
lfoot 18.0678 -0.101517
ltoes -1.24494
655
root 1.67729 16.0157 0.159888 -172.815 -8.03406 181.235
lowerback -4.44608 -2.70799 -3.60027
upperback 1.58563 -3.52581 2.44482
thorax 4.51372 -1.9035 4.25839
lowerneck -33.9089 0.346595 -0.70141
upperneck 39.8292 -2.61049 2.24926
head 22.3022 -1.43152 0.304386
rclavicle 1.19022e-014 -2.20651e-014
rhumerus -40.8696 -24.0316 -68.3811
rradius 24.9844
rwrist 36.374
rhand -2.08254 -6.72993
rfingers 7.12502
rthumb 23.5942 -35.3024
lclavicle 1.19022e-014 -2.20651e-014
lhumerus -24.148 4.94821 89.6086
lradius 27.805
lwrist -42.8946
lhand 4.04936 4.18552
lfingers 7.12502
lthumb 29.4628 31.8687
rfemur -20.2237 -3.35041 28.0129
rtibia 23.2175
rfoot -5.75372 -13.1518
rtoes -9.54029
lfemur -8.68675 -2.8073 -16.8814
ltibia 60.3107
lfoot 17.4937 1.27758
ltoes -1.4614
656
root 1.68907 16.019 0.0481502 -172.906 -7.73026 181.349
lowerback -4.44738 -2.5342 -3.46357
upperback 1.62812 -3.30386 2.44994
thorax 4.52746 -1.79112 4.20655
lowerneck -33.8802 0.416716 -0.644676
upperneck 39.883 -2.47475 2.11628
head 22.3237 -1.39646 0.260253
rclavicle 3.16565e-014 -2.127e-014
rhumerus -40.1435 -23.552 -68.9426
rradius 25.1538
rwrist 36.2013
rhand -2.15973 -6.74429
rfingers 7.12502
rthumb 23.5202 -35.3263
lclavicle 3.16565e-014 -2.127e-014
lhumerus -24.1572 5.2621 89.4128
lradius 28.0692
lwrist -42.4389
lhand 3.42277 4.34382
lfingers 7.12502
lthumb 28.8645 32.1308
rfemur -19.4772 -3.30643 28.2346
rtibia 22.8384
rfoot -5.96455 -12.9698
rtoes -9.23357
lfemur -10.1015 -2.39829 -16.8016
ltibia 62.1706
lfoot 16.8769 2.6088
ltoes -1.62654
